<svg xmlns="http://www.w3.org/2000/svg" xmlns:svg="http://www.w3.org/2000/svg" xmlns:xlink="http://www.w3.org/1999/xlink" id="svg3642" width="84" height="84" version="1"><metadata id="metadata58"/><defs id="defs3644"><linearGradient id="linearGradient4215-49"><stop id="stop4217-5" offset="0" style="stop-color:#000;stop-opacity:.184"/><stop id="stop4223-8" offset="1" style="stop-color:#000;stop-opacity:0"/></linearGradient><radialGradient id="radialGradient4275" cx="984" cy="905.362" r="8.5" fx="984" fy="905.362" gradientTransform="matrix(-1.6187099e-5,-1.4117565,1.4117775,-1.618734e-5,-1261.1539,1406.183)" gradientUnits="userSpaceOnUse" xlink:href="#linearGradient4215-49"/><linearGradient id="linearGradient4271" x1="83.6" x2="83.6" y1="-969.362" y2="-957.362" gradientTransform="matrix(0.71428571,0,0,1,-317.71429,1250.3622)" gradientUnits="userSpaceOnUse" xlink:href="#linearGradient4215-49"/><radialGradient id="radialGradient3382" cx="984" cy="905.362" r="8.5" fx="984" fy="905.362" gradientTransform="matrix(7.8257357e-6,1.411771,-1.4117668,7.8257123e-6,1345.1525,-1322.1898)" gradientUnits="userSpaceOnUse" xlink:href="#linearGradient4215-49"/><linearGradient id="linearGradient4259" x1="83.6" x2="83.6" y1="-969.362" y2="-957.362" gradientTransform="matrix(0.71428571,0,0,1,-317.71429,1250.3622)" gradientUnits="userSpaceOnUse" xlink:href="#linearGradient4215-49"/><linearGradient id="linearGradient4452" x1="-260" x2="-260" y1="281" y2="293" gradientUnits="userSpaceOnUse" xlink:href="#linearGradient4215-49"/><linearGradient id="linearGradient4283" x1="83.6" x2="83.6" y1="-969.362" y2="-957.362" gradientTransform="matrix(0.71428571,0,0,1,-317.71429,1250.3622)" gradientUnits="userSpaceOnUse" xlink:href="#linearGradient4215-49"/><radialGradient id="radialGradient4255" cx="982.909" cy="906.453" r="8.5" fx="982.909" fy="906.453" gradientTransform="matrix(1.4117577,5.5406049e-6,-5.5406032e-6,1.4117573,-1320.6245,-1262.6973)" gradientUnits="userSpaceOnUse" xlink:href="#linearGradient4215-49"/><radialGradient id="radialGradient4263" cx="984" cy="905.362" r="8.5" fx="984" fy="905.362" gradientTransform="matrix(-1.411767,-9.899721e-6,9.8996845e-6,-1.4117618,1406.1698,1345.1655)" gradientUnits="userSpaceOnUse" xlink:href="#linearGradient4215-49"/></defs><rect style="opacity:.8;fill:#121212;fill-opacity:1;stroke:none" id="decoration-center" width="50" height="50" x="17" y="17" class="ColorScheme-Background"/><g id="decoration-bottomleft" style="opacity:1"><path id="shadow-bottomleft" d="M 17,84 V 74 h -2 c -2.77,0 -5,-2.23 -5,-5 V 67 H 0 v 17 z" style="opacity:1;fill:url(#radialGradient4263);fill-opacity:1;stroke:none"/><path style="color:#383c4a;opacity:.8;fill:#121212;fill-opacity:1;stroke:none" id="path87" d="m 17.000005,74.000025 v -7 h -7 v 2 c 0,2.77 2.23,5 5,5 z" class="ColorScheme-Background"/></g><g id="decoration-left" style="opacity:1"><g id="shadow-left-3" transform="matrix(-1,0,0,1,298,-240)"><rect id="rect31" width="50" height="10" x="-307" y="288" transform="rotate(-90)" style="opacity:1;fill:url(#linearGradient4271);fill-opacity:1;stroke:none"/><rect id="rect33" width="7" height="1" x="278" y="257" transform="translate(3,2)" style="fill:#3498db;fill-opacity:0"/></g><path style="color:#383c4a;opacity:.8;fill:#121212;fill-opacity:1;stroke:none" id="path71" d="m 10.000015,16.999925 v 50 l 7,10e-6 v -50 z" class="ColorScheme-Background"/></g><g id="decoration-right" style="opacity:1"><g id="shadow-right" transform="translate(-214,-240)"><rect id="rect45" width="50" height="10" x="-307" y="288" transform="rotate(-90)" style="opacity:1;fill:url(#linearGradient4452);fill-opacity:1;stroke:none"/><rect id="rect47" width="7" height="1" x="278" y="257" transform="translate(3,2)" style="fill:#3498db;fill-opacity:0"/></g><path style="color:#383c4a;opacity:.8;fill:#121212;fill-opacity:1;stroke:none" id="path79" d="m 73.999995,16.999935 v 50 l -7,1e-5 v -50 z" class="ColorScheme-Background"/></g><g id="decoration-bottom" style="opacity:1"><g id="shadow-bottom" transform="rotate(90,269,55)"><rect id="rect39" width="50" height="10" x="-307" y="288" transform="rotate(-90)" style="opacity:1;fill:url(#linearGradient4259);fill-opacity:1;stroke:none"/><rect id="rect41" width="7" height="1" x="278" y="257" transform="translate(3,2)" style="fill:#3498db;fill-opacity:0"/></g><path style="color:#383c4a;opacity:.8;fill:#121212;fill-opacity:1;stroke:none" id="path95" d="m 16.999975,74.000065 h 50.00002 v -7 h -50.00001 z" class="ColorScheme-Background"/></g><g id="decoration-bottomright" style="opacity:1"><path id="shadow-bottomright" d="M 84,67 H 74 v 2 c 0,2.77 -2.23,5 -5,5 h -2 v 10 h 17 z" style="opacity:1;fill:url(#radialGradient3382);fill-opacity:1;stroke:none"/><path style="color:#383c4a;opacity:.8;fill:#121212;fill-opacity:1;stroke:none" id="path103" d="m 66.999995,74.000025 v -7 h 7 v 2 c 0,2.77 -2.23,5 -5,5 z" class="ColorScheme-Background"/></g><g id="decoration-top" style="opacity:1"><g id="shadow-top-6" transform="matrix(0,-1,-1,0,324,298)"><rect id="rect51" width="50" height="10" x="-307" y="288" transform="rotate(-90)" style="opacity:1;fill:url(#linearGradient4283);fill-opacity:1;stroke:none"/><rect id="rect53" width="7" height="1" x="278" y="257" transform="translate(3,2)" style="fill:#3498db;fill-opacity:0"/></g><path style="color:#383c4a;opacity:.8;fill:#121212;fill-opacity:1;stroke:none" id="path111" d="m 16.999975,9.999935 h 50.00002 v 7 h -50.00001 z" class="ColorScheme-Background"/></g><g id="decoration-topright" style="opacity:1"><path id="shadow-topright" d="m 67,0 v 10 h 2 c 2.77,0 5,2.23 5,5 v 2 H 84 V 0 Z" style="opacity:1;fill:url(#radialGradient4255);fill-opacity:1;stroke:none"/><path style="color:#383c4a;opacity:.8;fill:#121212;fill-opacity:1;stroke:none" id="path119" d="m 66.999995,9.999935 v 7 h 7 v -2 c 0,-2.77 -2.23,-5 -5,-5 z" class="ColorScheme-Background"/></g><g id="decoration-topleft" style="opacity:1"><path id="shadow-topleft" d="m 0,17 h 10 v -2 c 0,-2.77 2.23,-5 5,-5 h 2 V 0 H 0 Z" style="opacity:1;fill:url(#radialGradient4275);fill-opacity:1;stroke:none"/><path style="color:#383c4a;opacity:.8;fill:#121212;fill-opacity:1;stroke:none" id="path63" d="m 17.000005,9.999935 v 7 h -7 v -2 c 0,-2.77 2.23,-5 5,-5 z" class="ColorScheme-Background"/></g></svg>